<?xml version="1.0" standalone="no"?>
<!DOCTYPE svg PUBLIC "-//W3C//DTD SVG 20010904//EN"
 "http://www.w3.org/TR/2001/REC-SVG-20010904/DTD/svg10.dtd">
<svg version="1.0" xmlns="http://www.w3.org/2000/svg"
 width="300.000000pt" height="300.000000pt" viewBox="0 0 300.000000 300.000000"
 preserveAspectRatio="xMidYMid meet">
<metadata>
Created by potrace 1.14, written by Peter Selinger 2001-2017
</metadata>
<g transform="translate(0.000000,300.000000) scale(0.100000,-0.100000)"
fill="#000000" stroke="none">
<path d="M1320 2890 c-164 -23 -347 -84 -498 -166 -233 -127 -453 -357 -576
-602 -45 -90 -98 -247 -123 -362 -28 -132 -25 -402 5 -539 64 -284 188 -515
383 -710 196 -196 442 -327 729 -388 132 -28 402 -25 539 5 284 64 515 188
710 383 196 196 327 442 388 729 28 132 25 402 -5 539 -67 298 -193 525 -409
731 -196 189 -426 309 -698 365 -94 20 -350 28 -445 15z m326 -1069 c74 -35
133 -91 171 -163 25 -48 28 -62 28 -158 0 -95 -3 -110 -27 -156 -55 -105 -129
-163 -242 -191 -181 -44 -368 67 -421 252 -23 76 -16 165 18 238 85 185 291
263 473 178z m-651 -458 c93 -322 438 -473 743 -325 118 57 247 222 267 341
l7 41 359 0 c344 0 359 -1 359 -19 0 -10 -7 -58 -15 -107 -105 -598 -610
-1025 -1215 -1027 -260 0 -480 67 -699 213 -159 107 -321 292 -411 469 -62
124 -120 332 -120 432 l0 39 354 0 355 0 16 -57z"/>
</g>
</svg>
