<svg width="16" height="16" viewBox="0 0 16 16" fill="none" xmlns="http://www.w3.org/2000/svg">
<circle cx="8" cy="8" r="8" fill="#CCCCCC"/>
<path fill-rule="evenodd" clip-rule="evenodd" d="M15.0279 7.5294C14.7858 3.85032 11.7249 0.941162 7.98456 0.941162C4.24421 0.941162 1.18333 3.85032 0.941177 7.5294H5.04111C5.26674 6.10698 6.49866 5.01961 7.98456 5.01961C9.47045 5.01961 10.7024 6.10698 10.928 7.5294H15.0279Z" fill="#F6CCCC"/>
<path fill-rule="evenodd" clip-rule="evenodd" d="M0.941167 8.47061C1.18333 12.1497 4.2442 15.0588 7.98455 15.0588C11.7249 15.0588 14.7858 12.1497 15.0279 8.4706L10.928 8.4706C10.7024 9.89302 9.47045 10.9804 7.98456 10.9804C6.49866 10.9804 5.26674 9.89302 5.04111 8.4706L0.941167 8.47061Z" fill="white"/>
<path fill-rule="evenodd" clip-rule="evenodd" d="M5.94534 8C5.94534 6.87377 6.85833 5.96078 7.98456 5.96078C9.11079 5.96078 10.0238 6.87377 10.0238 8C10.0238 9.12623 9.11079 10.0392 7.98456 10.0392C6.85833 10.0392 5.94534 9.12623 5.94534 8Z" fill="white"/>
</svg>
